<?xml version="1.0" standalone="no"?>
<!DOCTYPE svg PUBLIC "-//W3C//DTD SVG 20010904//EN"
 "http://www.w3.org/TR/2001/REC-SVG-20010904/DTD/svg10.dtd">
<svg version="1.0" xmlns="http://www.w3.org/2000/svg"
 width="2500.000000pt" height="2500.000000pt" viewBox="0 0 2500.000000 2500.000000"
 preserveAspectRatio="xMidYMid meet">
<metadata>
Created by potrace 1.14, written by Peter Selinger 2001-2017
</metadata>
<g transform="translate(0.000000,2500.000000) scale(0.100000,-0.100000)"
fill="#000000" stroke="none">
<path d="M13704 20161 c-113 -30 -169 -65 -245 -153 -58 -68 -621 -741 -759
-908 -137 -166 -808 -969 -1064 -1274 -111 -131 -214 -255 -231 -276 -16 -21
-73 -89 -126 -152 -52 -62 -151 -180 -220 -263 -124 -149 -727 -871 -969
-1160 -69 -82 -390 -467 -713 -855 -324 -388 -592 -706 -595 -707 -4 -1 -208
240 -454 535 -246 295 -554 665 -685 822 -131 157 -490 587 -798 955 -307 369
-650 778 -760 910 -111 132 -473 566 -806 965 -1228 1472 -1206 1446 -1261
1483 -37 25 -82 43 -148 60 l-95 24 -102 -27 c-80 -20 -112 -35 -156 -67 -80
-61 -130 -142 -156 -253 l-21 -92 0 -5425 0 -5426 21 -90 c26 -109 74 -182
162 -246 46 -33 78 -46 160 -66 100 -25 109 -25 535 -25 425 0 434 0 537 25
86 20 116 32 160 65 75 56 133 137 159 224 l21 71 5 3612 5 3611 602 -721
c331 -397 668 -801 749 -897 647 -773 1344 -1609 1369 -1640 17 -21 132 -160
258 -309 125 -149 232 -282 237 -296 12 -32 79 -122 116 -156 77 -71 145 -108
242 -130 l96 -22 95 21 c100 23 132 41 236 128 28 24 74 76 102 117 45 67 285
356 788 956 99 117 191 227 205 245 14 18 104 126 200 241 97 116 326 390 510
610 184 220 447 535 585 699 137 164 297 356 355 426 58 70 224 270 370 444
l265 318 5 -5454 c5 -5429 5 -5453 25 -5523 42 -144 147 -243 300 -282 87 -22
105 -23 552 -23 430 0 468 1 550 20 170 40 273 143 313 313 l20 88 0 7261 0
7261 -21 91 c-41 173 -142 273 -324 318 l-101 25 -100 -26z"/>
<path d="M20240 19886 c-67 -17 -99 -31 -145 -66 -90 -69 -132 -137 -161 -259
l-24 -103 0 -2194 0 -2194 -1765 0 -1766 0 -105 -26 c-85 -22 -117 -35 -163
-69 -40 -29 -167 -174 -431 -489 -206 -247 -391 -468 -410 -494 -25 -33 -41
-73 -61 -148 l-27 -103 18 -73 c10 -40 21 -85 24 -99 10 -44 89 -142 148 -182
39 -27 83 -45 149 -62 l94 -25 2148 0 2147 0 0 -2197 0 -2197 26 -108 c21 -90
33 -118 68 -166 63 -85 131 -127 254 -157 102 -25 108 -25 543 -25 440 0 440
0 542 26 80 20 113 34 157 66 86 64 134 138 159 245 l21 90 0 5309 0 5309 -24
91 c-41 162 -138 259 -300 300 -89 23 -100 24 -561 23 -449 -1 -474 -2 -555
-23z"/>
</g>
</svg>
